<mxfile host="Electron" agent="Mozilla/5.0 (Windows NT 10.0; Win64; x64) AppleWebKit/537.36 (KHTML, like Gecko) draw.io/26.0.16 Chrome/132.0.6834.196 Electron/34.2.0 Safari/537.36" version="26.0.16">
  <diagram name="Page-1" id="a2HyND_lD3aqpeQVUE_9">
    <mxGraphModel dx="1500" dy="1024" grid="1" gridSize="10" guides="1" tooltips="1" connect="1" arrows="1" fold="1" page="1" pageScale="1" pageWidth="827" pageHeight="1169" math="0" shadow="0">
      <root>
        <mxCell id="0" />
        <mxCell id="1" parent="0" />
        <mxCell id="6Al3u5jA5wC7XAN77OT_-10" value="" style="endArrow=classic;html=1;rounded=0;exitX=0.5;exitY=1;exitDx=0;exitDy=0;entryX=0.5;entryY=0;entryDx=0;entryDy=0;" edge="1" parent="1" source="Br9xJaollehov2xvvoXr-130" target="Br9xJaollehov2xvvoXr-79">
          <mxGeometry width="50" height="50" relative="1" as="geometry">
            <mxPoint x="572" y="700" as="sourcePoint" />
            <mxPoint x="622" y="650" as="targetPoint" />
          </mxGeometry>
        </mxCell>
        <mxCell id="6Al3u5jA5wC7XAN77OT_-9" value="" style="endArrow=classic;html=1;rounded=0;exitX=0.5;exitY=1;exitDx=0;exitDy=0;entryX=0.5;entryY=0;entryDx=0;entryDy=0;" edge="1" parent="1" source="Br9xJaollehov2xvvoXr-120" target="Br9xJaollehov2xvvoXr-130">
          <mxGeometry width="50" height="50" relative="1" as="geometry">
            <mxPoint x="570" y="630" as="sourcePoint" />
            <mxPoint x="620" y="580" as="targetPoint" />
          </mxGeometry>
        </mxCell>
        <mxCell id="Br9xJaollehov2xvvoXr-113" style="edgeStyle=orthogonalEdgeStyle;rounded=0;orthogonalLoop=1;jettySize=auto;html=1;exitX=0.5;exitY=1;exitDx=0;exitDy=0;entryX=0.5;entryY=0;entryDx=0;entryDy=0;" parent="1" source="Br9xJaollehov2xvvoXr-44" target="Br9xJaollehov2xvvoXr-53" edge="1">
          <mxGeometry relative="1" as="geometry" />
        </mxCell>
        <mxCell id="Br9xJaollehov2xvvoXr-127" value="" style="shape=ellipse;fillColor=#0065FF;strokeColor=none;html=1;sketch=0;" parent="1" vertex="1">
          <mxGeometry x="584.5" y="600" width="10" height="10" as="geometry" />
        </mxCell>
        <mxCell id="Br9xJaollehov2xvvoXr-44" value="&lt;font style=&quot;font-size: 18px;&quot;&gt;One MacroTask&lt;/font&gt;" style="rounded=0;whiteSpace=wrap;html=1;fillColor=#FBC02D;" parent="1" vertex="1">
          <mxGeometry x="465" y="70" width="250" height="40" as="geometry" />
        </mxCell>
        <mxCell id="Br9xJaollehov2xvvoXr-15" value="" style="endArrow=classic;html=1;rounded=0;exitX=0;exitY=0.5;exitDx=0;exitDy=0;entryX=0.973;entryY=0.059;entryDx=0;entryDy=0;entryPerimeter=0;dashed=1;dashPattern=8 8;" parent="1" source="Br9xJaollehov2xvvoXr-44" target="Br9xJaollehov2xvvoXr-50" edge="1">
          <mxGeometry width="50" height="50" relative="1" as="geometry">
            <mxPoint x="525.0000000000002" y="110" as="sourcePoint" />
            <mxPoint x="295.2399999999998" y="207.27999999999986" as="targetPoint" />
          </mxGeometry>
        </mxCell>
        <mxCell id="Br9xJaollehov2xvvoXr-45" value="&lt;font style=&quot;font-size: 18px;&quot;&gt;All MicroTasks&lt;/font&gt;" style="rounded=0;whiteSpace=wrap;html=1;fillColor=#FB8C00;" parent="1" vertex="1">
          <mxGeometry x="464.25" y="893" width="250" height="40" as="geometry" />
        </mxCell>
        <mxCell id="Br9xJaollehov2xvvoXr-50" value="&lt;span style=&quot;font-size: 24px;&quot;&gt;&lt;font style=&quot;color: rgb(255, 255, 255);&quot;&gt;Call Stack&lt;/font&gt;&lt;/span&gt;" style="rounded=0;whiteSpace=wrap;html=1;fillColor=#1E88E5;" parent="1" vertex="1">
          <mxGeometry x="65" y="40" width="110" height="840" as="geometry" />
        </mxCell>
        <mxCell id="Br9xJaollehov2xvvoXr-114" style="edgeStyle=orthogonalEdgeStyle;rounded=0;orthogonalLoop=1;jettySize=auto;html=1;exitX=0.5;exitY=1;exitDx=0;exitDy=0;entryX=0.5;entryY=0;entryDx=0;entryDy=0;" parent="1" source="Br9xJaollehov2xvvoXr-53" target="Br9xJaollehov2xvvoXr-62" edge="1">
          <mxGeometry relative="1" as="geometry" />
        </mxCell>
        <mxCell id="Br9xJaollehov2xvvoXr-53" value="&lt;font style=&quot;font-size: 18px;&quot;&gt;All MicroTasks&lt;/font&gt;" style="rounded=0;whiteSpace=wrap;html=1;fillColor=#FB8C00;" parent="1" vertex="1">
          <mxGeometry x="465.25" y="140" width="250" height="40" as="geometry" />
        </mxCell>
        <mxCell id="Br9xJaollehov2xvvoXr-59" value="" style="endArrow=classic;html=1;rounded=0;exitX=0;exitY=0.5;exitDx=0;exitDy=0;entryX=0.985;entryY=0.143;entryDx=0;entryDy=0;entryPerimeter=0;dashed=1;dashPattern=8 8;" parent="1" source="Br9xJaollehov2xvvoXr-53" target="Br9xJaollehov2xvvoXr-50" edge="1">
          <mxGeometry width="50" height="50" relative="1" as="geometry">
            <mxPoint x="475" y="100" as="sourcePoint" />
            <mxPoint x="265" y="106" as="targetPoint" />
          </mxGeometry>
        </mxCell>
        <mxCell id="Br9xJaollehov2xvvoXr-62" value="&lt;font style=&quot;font-size: 18px;&quot;&gt;Layer&lt;span style=&quot;&quot;&gt; &lt;/span&gt;&lt;span style=&quot;&quot; data-src-align=&quot;0:9&quot; class=&quot;EzKURWReUAB5oZgtQNkl&quot;&gt;change&lt;/span&gt;&lt;span style=&quot;&quot; data-src-align=&quot;14:1&quot; class=&quot;EzKURWReUAB5oZgtQNkl&quot;&gt;?&lt;/span&gt;&lt;/font&gt;" style="rhombus;whiteSpace=wrap;html=1;fillColor=#EEEEEE;" parent="1" vertex="1">
          <mxGeometry x="465.25" y="212" width="250" height="48" as="geometry" />
        </mxCell>
        <mxCell id="Br9xJaollehov2xvvoXr-115" style="edgeStyle=orthogonalEdgeStyle;rounded=0;orthogonalLoop=1;jettySize=auto;html=1;exitX=0.5;exitY=1;exitDx=0;exitDy=0;entryX=0.5;entryY=0;entryDx=0;entryDy=0;" parent="1" source="Br9xJaollehov2xvvoXr-63" target="Br9xJaollehov2xvvoXr-66" edge="1">
          <mxGeometry relative="1" as="geometry" />
        </mxCell>
        <mxCell id="Br9xJaollehov2xvvoXr-63" value="&lt;font style=&quot;font-size: 18px; color: rgb(255, 255, 255);&quot;&gt;All requestAnimationFrame()&lt;/font&gt;" style="rounded=0;whiteSpace=wrap;html=1;fillColor=#43A047;" parent="1" vertex="1">
          <mxGeometry x="465.5" y="295" width="250" height="38" as="geometry" />
        </mxCell>
        <mxCell id="Br9xJaollehov2xvvoXr-64" value="" style="endArrow=classic;html=1;rounded=0;entryX=0.5;entryY=0;entryDx=0;entryDy=0;exitX=0.5;exitY=1;exitDx=0;exitDy=0;" parent="1" source="Br9xJaollehov2xvvoXr-62" target="Br9xJaollehov2xvvoXr-63" edge="1">
          <mxGeometry width="50" height="50" relative="1" as="geometry">
            <mxPoint x="665.75" y="265.77499999999986" as="sourcePoint" />
            <mxPoint x="535.25" y="376.55" as="targetPoint" />
            <Array as="points" />
          </mxGeometry>
        </mxCell>
        <mxCell id="Br9xJaollehov2xvvoXr-65" value="&lt;font style=&quot;font-size: 18px;&quot;&gt;Yes&lt;/font&gt;" style="text;html=1;align=center;verticalAlign=middle;whiteSpace=wrap;rounded=0;" parent="1" vertex="1">
          <mxGeometry x="582.5" y="253.55" width="60" height="30" as="geometry" />
        </mxCell>
        <mxCell id="Br9xJaollehov2xvvoXr-66" value="&lt;font style=&quot;font-size: 18px;&quot;&gt;All MicroTasks&lt;/font&gt;" style="rounded=0;whiteSpace=wrap;html=1;fillColor=#FB8C00;" parent="1" vertex="1">
          <mxGeometry x="465.5" y="360" width="250" height="40" as="geometry" />
        </mxCell>
        <mxCell id="Br9xJaollehov2xvvoXr-79" value="&lt;font style=&quot;font-size: 18px;&quot;&gt;Free time?*&lt;/font&gt;" style="rhombus;whiteSpace=wrap;html=1;fillColor=#EEEEEE;" parent="1" vertex="1">
          <mxGeometry x="464.5" y="748" width="250" height="41.55" as="geometry" />
        </mxCell>
        <mxCell id="Br9xJaollehov2xvvoXr-80" value="" style="endArrow=classic;html=1;rounded=0;exitX=0;exitY=0.5;exitDx=0;exitDy=0;entryX=1.004;entryY=0.372;entryDx=0;entryDy=0;entryPerimeter=0;dashed=1;dashPattern=8 8;" parent="1" source="Br9xJaollehov2xvvoXr-66" target="Br9xJaollehov2xvvoXr-50" edge="1">
          <mxGeometry width="50" height="50" relative="1" as="geometry">
            <mxPoint x="475" y="174" as="sourcePoint" />
            <mxPoint x="135" y="173" as="targetPoint" />
          </mxGeometry>
        </mxCell>
        <mxCell id="Br9xJaollehov2xvvoXr-82" value="" style="endArrow=classic;html=1;rounded=0;exitX=0;exitY=0.5;exitDx=0;exitDy=0;entryX=0.973;entryY=0.287;entryDx=0;entryDy=0;entryPerimeter=0;dashed=1;dashPattern=8 8;" parent="1" source="Br9xJaollehov2xvvoXr-63" target="Br9xJaollehov2xvvoXr-50" edge="1">
          <mxGeometry width="50" height="50" relative="1" as="geometry">
            <mxPoint x="275" y="420" as="sourcePoint" />
            <mxPoint x="140" y="420" as="targetPoint" />
          </mxGeometry>
        </mxCell>
        <mxCell id="Br9xJaollehov2xvvoXr-118" value="" style="edgeStyle=orthogonalEdgeStyle;rounded=0;orthogonalLoop=1;jettySize=auto;html=1;" parent="1" source="Br9xJaollehov2xvvoXr-91" target="Br9xJaollehov2xvvoXr-45" edge="1">
          <mxGeometry relative="1" as="geometry" />
        </mxCell>
        <mxCell id="Br9xJaollehov2xvvoXr-91" value="&lt;font style=&quot;font-size: 18px; color: rgb(255, 255, 255);&quot;&gt;One requestIdleCallback()&lt;/font&gt;" style="rounded=0;whiteSpace=wrap;html=1;fillColor=#8E24AA;" parent="1" vertex="1">
          <mxGeometry x="464.5" y="818" width="250" height="40" as="geometry" />
        </mxCell>
        <mxCell id="Br9xJaollehov2xvvoXr-121" style="edgeStyle=orthogonalEdgeStyle;rounded=0;orthogonalLoop=1;jettySize=auto;html=1;exitX=0.5;exitY=1;exitDx=0;exitDy=0;entryX=0.503;entryY=0.037;entryDx=0;entryDy=0;entryPerimeter=0;" parent="1" source="Br9xJaollehov2xvvoXr-94" target="Br9xJaollehov2xvvoXr-120" edge="1">
          <mxGeometry relative="1" as="geometry" />
        </mxCell>
        <mxCell id="Br9xJaollehov2xvvoXr-94" value="&lt;font style=&quot;font-size: 18px; color: rgb(255, 255, 255);&quot;&gt;Render&lt;/font&gt;" style="rounded=1;whiteSpace=wrap;html=1;fillColor=#1565C0;strokeColor=#000000;shadow=1;glass=0;strokeWidth=6;" parent="1" vertex="1">
          <mxGeometry x="465.5" y="491.55" width="250" height="40" as="geometry" />
        </mxCell>
        <mxCell id="Br9xJaollehov2xvvoXr-96" value="&lt;font style=&quot;font-size: 18px;&quot;&gt;No&lt;/font&gt;" style="text;html=1;align=center;verticalAlign=middle;whiteSpace=wrap;rounded=0;" parent="1" vertex="1">
          <mxGeometry x="700" y="212" width="60" height="30" as="geometry" />
        </mxCell>
        <mxCell id="Br9xJaollehov2xvvoXr-99" value="" style="endArrow=classic;html=1;rounded=0;exitX=0.5;exitY=1;exitDx=0;exitDy=0;entryX=0.5;entryY=0;entryDx=0;entryDy=0;" parent="1" source="Br9xJaollehov2xvvoXr-79" target="Br9xJaollehov2xvvoXr-91" edge="1">
          <mxGeometry width="50" height="50" relative="1" as="geometry">
            <mxPoint x="645" y="878" as="sourcePoint" />
            <mxPoint x="695" y="828" as="targetPoint" />
          </mxGeometry>
        </mxCell>
        <mxCell id="Br9xJaollehov2xvvoXr-101" value="" style="endArrow=classic;html=1;rounded=0;exitX=0;exitY=0.5;exitDx=0;exitDy=0;dashed=1;dashPattern=8 8;entryX=1.014;entryY=0.838;entryDx=0;entryDy=0;entryPerimeter=0;" parent="1" source="Br9xJaollehov2xvvoXr-91" target="Br9xJaollehov2xvvoXr-50" edge="1">
          <mxGeometry width="50" height="50" relative="1" as="geometry">
            <mxPoint x="275" y="350" as="sourcePoint" />
            <mxPoint x="175" y="730" as="targetPoint" />
          </mxGeometry>
        </mxCell>
        <mxCell id="Br9xJaollehov2xvvoXr-103" value="" style="endArrow=classic;html=1;rounded=0;exitX=0;exitY=0.5;exitDx=0;exitDy=0;dashed=1;dashPattern=8 8;entryX=0.985;entryY=0.927;entryDx=0;entryDy=0;entryPerimeter=0;" parent="1" source="Br9xJaollehov2xvvoXr-45" target="Br9xJaollehov2xvvoXr-50" edge="1">
          <mxGeometry width="50" height="50" relative="1" as="geometry">
            <mxPoint x="483" y="740" as="sourcePoint" />
            <mxPoint x="145" y="740" as="targetPoint" />
          </mxGeometry>
        </mxCell>
        <mxCell id="Br9xJaollehov2xvvoXr-105" value="" style="endArrow=classic;html=1;rounded=0;exitX=1.016;exitY=0.495;exitDx=0;exitDy=0;entryX=0.5;entryY=0;entryDx=0;entryDy=0;strokeWidth=5;exitPerimeter=0;" parent="1" source="Br9xJaollehov2xvvoXr-79" target="Br9xJaollehov2xvvoXr-44" edge="1">
          <mxGeometry width="50" height="50" relative="1" as="geometry">
            <mxPoint x="742.5" y="778.7749999999999" as="sourcePoint" />
            <mxPoint x="620" y="70" as="targetPoint" />
            <Array as="points">
              <mxPoint x="805" y="769" />
              <mxPoint x="805" y="676" />
              <mxPoint x="805" y="40" />
              <mxPoint x="590" y="40" />
            </Array>
          </mxGeometry>
        </mxCell>
        <mxCell id="Br9xJaollehov2xvvoXr-109" value="&lt;font style=&quot;font-size: 18px;&quot;&gt;Yes&lt;/font&gt;" style="text;html=1;align=center;verticalAlign=middle;whiteSpace=wrap;rounded=0;" parent="1" vertex="1">
          <mxGeometry x="578" y="786" width="60" height="30" as="geometry" />
        </mxCell>
        <mxCell id="Br9xJaollehov2xvvoXr-120" value="&lt;font style=&quot;font-size: 20px;&quot;&gt;All MicroTasks&lt;/font&gt;" style="rounded=0;whiteSpace=wrap;html=1;fillColor=#FB8C00;glass=0;gradientColor=none;" parent="1" vertex="1">
          <mxGeometry x="464.5" y="551.55" width="250" height="40" as="geometry" />
        </mxCell>
        <mxCell id="Br9xJaollehov2xvvoXr-122" value="" style="endArrow=classic;html=1;rounded=0;exitX=0;exitY=0.5;exitDx=0;exitDy=0;entryX=1.014;entryY=0.515;entryDx=0;entryDy=0;entryPerimeter=0;dashed=1;dashPattern=8 8;" parent="1" source="Br9xJaollehov2xvvoXr-120" target="Br9xJaollehov2xvvoXr-50" edge="1">
          <mxGeometry width="50" height="50" relative="1" as="geometry">
            <mxPoint x="275" y="420" as="sourcePoint" />
            <mxPoint x="140" y="475" as="targetPoint" />
          </mxGeometry>
        </mxCell>
        <mxCell id="Br9xJaollehov2xvvoXr-124" value="" style="endArrow=none;html=1;rounded=0;entryX=0.5;entryY=1;entryDx=0;entryDy=0;" parent="1" source="Br9xJaollehov2xvvoXr-126" target="Br9xJaollehov2xvvoXr-45" edge="1">
          <mxGeometry width="50" height="50" relative="1" as="geometry">
            <mxPoint x="589.5" y="718" as="sourcePoint" />
            <mxPoint x="645" y="778" as="targetPoint" />
            <Array as="points">
              <mxPoint x="434.5" y="718" />
              <mxPoint x="434.5" y="973" />
              <mxPoint x="589.5" y="973" />
            </Array>
          </mxGeometry>
        </mxCell>
        <mxCell id="6Al3u5jA5wC7XAN77OT_-11" value="" style="edgeStyle=orthogonalEdgeStyle;rounded=0;orthogonalLoop=1;jettySize=auto;html=1;endArrow=none;startFill=0;" edge="1" parent="1" source="Br9xJaollehov2xvvoXr-126" target="Br9xJaollehov2xvvoXr-130">
          <mxGeometry relative="1" as="geometry" />
        </mxCell>
        <mxCell id="Br9xJaollehov2xvvoXr-126" value="" style="shape=ellipse;fillColor=#0065FF;strokeColor=none;html=1;sketch=0;" parent="1" vertex="1">
          <mxGeometry x="584.5" y="713" width="10" height="10" as="geometry" />
        </mxCell>
        <mxCell id="Br9xJaollehov2xvvoXr-129" value="&lt;font style=&quot;font-size: 18px;&quot;&gt;No&lt;/font&gt;" style="text;html=1;align=center;verticalAlign=middle;whiteSpace=wrap;rounded=0;" parent="1" vertex="1">
          <mxGeometry x="703.25" y="740" width="60" height="30" as="geometry" />
        </mxCell>
        <mxCell id="Br9xJaollehov2xvvoXr-130" value="&lt;font style=&quot;color: rgb(0, 0, 0);&quot;&gt;&lt;span style=&quot;font-size: 18px;&quot;&gt;&lt;font style=&quot;color: rgb(0, 0, 0);&quot;&gt;No Macrotasks?&lt;/font&gt;&lt;/span&gt;&lt;/font&gt;" style="rhombus;whiteSpace=wrap;html=1;fillColor=#EEEEEE;" parent="1" vertex="1">
          <mxGeometry x="464.5" y="630.5" width="250" height="60" as="geometry" />
        </mxCell>
        <mxCell id="Br9xJaollehov2xvvoXr-131" value="&lt;font style=&quot;font-size: 18px;&quot;&gt;Yes&lt;/font&gt;" style="text;html=1;align=center;verticalAlign=middle;whiteSpace=wrap;rounded=0;" parent="1" vertex="1">
          <mxGeometry x="578" y="686.5" width="60" height="30" as="geometry" />
        </mxCell>
        <mxCell id="Br9xJaollehov2xvvoXr-132" value="" style="endArrow=none;html=1;rounded=0;exitX=1;exitY=0.5;exitDx=0;exitDy=0;strokeWidth=5;" parent="1" edge="1">
          <mxGeometry width="50" height="50" relative="1" as="geometry">
            <mxPoint x="774.5" y="659.5" as="sourcePoint" />
            <mxPoint x="774.5" y="660" as="targetPoint" />
          </mxGeometry>
        </mxCell>
        <mxCell id="Br9xJaollehov2xvvoXr-134" value="" style="endArrow=none;html=1;rounded=0;exitX=1;exitY=0.5;exitDx=0;exitDy=0;strokeWidth=5;" parent="1" source="Br9xJaollehov2xvvoXr-137" edge="1">
          <mxGeometry width="50" height="50" relative="1" as="geometry">
            <mxPoint x="712.5" y="660" as="sourcePoint" />
            <mxPoint x="810" y="660" as="targetPoint" />
          </mxGeometry>
        </mxCell>
        <mxCell id="Br9xJaollehov2xvvoXr-136" value="&lt;font style=&quot;font-size: 18px;&quot;&gt;No&lt;/font&gt;" style="text;html=1;align=center;verticalAlign=middle;whiteSpace=wrap;rounded=0;" parent="1" vertex="1">
          <mxGeometry x="704.5" y="633" width="57.5" height="27" as="geometry" />
        </mxCell>
        <mxCell id="6Al3u5jA5wC7XAN77OT_-1" value="&lt;font style=&quot;font-size: 18px;&quot;&gt;&lt;span style=&quot;&quot; data-src-align=&quot;14:1&quot; class=&quot;EzKURWReUAB5oZgtQNkl&quot;&gt;Render?&lt;/span&gt;&lt;/font&gt;" style="rhombus;whiteSpace=wrap;html=1;fillColor=#EEEEEE;" vertex="1" parent="1">
          <mxGeometry x="465.5" y="420" width="250" height="41.55" as="geometry" />
        </mxCell>
        <mxCell id="6Al3u5jA5wC7XAN77OT_-4" value="" style="endArrow=none;html=1;rounded=0;exitX=1;exitY=0.5;exitDx=0;exitDy=0;strokeWidth=5;" edge="1" parent="1" source="Br9xJaollehov2xvvoXr-130" target="Br9xJaollehov2xvvoXr-137">
          <mxGeometry width="50" height="50" relative="1" as="geometry">
            <mxPoint x="713" y="661" as="sourcePoint" />
            <mxPoint x="810" y="660" as="targetPoint" />
          </mxGeometry>
        </mxCell>
        <mxCell id="Br9xJaollehov2xvvoXr-137" value="" style="shape=ellipse;fillColor=#0065FF;strokeColor=none;html=1;sketch=0;" parent="1" vertex="1">
          <mxGeometry x="800" y="655.5" width="10" height="10" as="geometry" />
        </mxCell>
        <mxCell id="6Al3u5jA5wC7XAN77OT_-5" value="&lt;font style=&quot;font-size: 18px;&quot;&gt;Yes&lt;/font&gt;" style="text;html=1;align=center;verticalAlign=middle;whiteSpace=wrap;rounded=0;" vertex="1" parent="1">
          <mxGeometry x="582.5" y="456" width="60" height="30" as="geometry" />
        </mxCell>
        <mxCell id="6Al3u5jA5wC7XAN77OT_-6" value="&lt;font style=&quot;font-size: 18px;&quot;&gt;No&lt;/font&gt;" style="text;html=1;align=center;verticalAlign=middle;whiteSpace=wrap;rounded=0;" vertex="1" parent="1">
          <mxGeometry x="703.75" y="415" width="57.5" height="27" as="geometry" />
        </mxCell>
        <mxCell id="6Al3u5jA5wC7XAN77OT_-8" value="" style="endArrow=none;html=1;rounded=0;entryX=1;entryY=0.5;entryDx=0;entryDy=0;exitX=1;exitY=0.5;exitDx=0;exitDy=0;" edge="1" parent="1" source="Br9xJaollehov2xvvoXr-127" target="6Al3u5jA5wC7XAN77OT_-1">
          <mxGeometry width="50" height="50" relative="1" as="geometry">
            <mxPoint x="580" y="620" as="sourcePoint" />
            <mxPoint x="630" y="570" as="targetPoint" />
            <Array as="points">
              <mxPoint x="760" y="605" />
              <mxPoint x="760" y="440" />
            </Array>
          </mxGeometry>
        </mxCell>
        <mxCell id="6Al3u5jA5wC7XAN77OT_-13" value="" style="endArrow=none;html=1;rounded=0;exitX=1;exitY=0.5;exitDx=0;exitDy=0;" edge="1" parent="1" source="Br9xJaollehov2xvvoXr-62">
          <mxGeometry width="50" height="50" relative="1" as="geometry">
            <mxPoint x="620" y="480" as="sourcePoint" />
            <mxPoint x="760" y="440" as="targetPoint" />
            <Array as="points">
              <mxPoint x="760" y="236" />
            </Array>
          </mxGeometry>
        </mxCell>
        <mxCell id="6Al3u5jA5wC7XAN77OT_-14" value="" style="shape=ellipse;fillColor=#0065FF;strokeColor=none;html=1;sketch=0;" vertex="1" parent="1">
          <mxGeometry x="754.25" y="434.78" width="10" height="10" as="geometry" />
        </mxCell>
        <mxCell id="6Al3u5jA5wC7XAN77OT_-16" value="" style="endArrow=classic;html=1;rounded=0;exitX=0.5;exitY=1;exitDx=0;exitDy=0;entryX=0.5;entryY=0;entryDx=0;entryDy=0;" edge="1" parent="1" source="Br9xJaollehov2xvvoXr-66" target="6Al3u5jA5wC7XAN77OT_-1">
          <mxGeometry width="50" height="50" relative="1" as="geometry">
            <mxPoint x="530" y="490" as="sourcePoint" />
            <mxPoint x="580" y="440" as="targetPoint" />
          </mxGeometry>
        </mxCell>
        <mxCell id="6Al3u5jA5wC7XAN77OT_-17" value="" style="endArrow=classic;html=1;rounded=0;exitX=0.5;exitY=1;exitDx=0;exitDy=0;entryX=0.5;entryY=0;entryDx=0;entryDy=0;" edge="1" parent="1" source="6Al3u5jA5wC7XAN77OT_-1" target="Br9xJaollehov2xvvoXr-94">
          <mxGeometry width="50" height="50" relative="1" as="geometry">
            <mxPoint x="530" y="490" as="sourcePoint" />
            <mxPoint x="580" y="440" as="targetPoint" />
          </mxGeometry>
        </mxCell>
      </root>
    </mxGraphModel>
  </diagram>
</mxfile>
